<svg width="50" height="43" viewBox="0 0 50 43" fill="none" xmlns="http://www.w3.org/2000/svg">
<path fill-rule="evenodd" clip-rule="evenodd" d="M0 3.5C0 1.56701 1.56701 0 3.5 0H46.5C48.433 0 50 1.56701 50 3.5C50 5.43299 48.433 7 46.5 7H3.5C1.567 7 0 5.43299 0 3.5ZM0 21.5C0 19.567 1.56701 18 3.5 18H46.5C48.433 18 50 19.567 50 21.5C50 23.433 48.433 25 46.5 25H3.5C1.567 25 0 23.433 0 21.5ZM3.5 36C1.56701 36 0 37.567 0 39.5C0 41.433 1.567 43 3.5 43H46.5C48.433 43 50 41.433 50 39.5C50 37.567 48.433 36 46.5 36H3.5Z" fill="#D9D9D9"/>
</svg>
