<svg width="21" height="23" viewBox="0 0 21 23" fill="none" xmlns="http://www.w3.org/2000/svg">
<path fill-rule="evenodd" clip-rule="evenodd" d="M15.475 15.1567C16.9904 13.3658 17.7775 10.9688 17.4557 8.45845C16.8474 3.71357 12.5078 0.360188 7.7629 0.968474C3.01801 1.57676 -0.335368 5.91636 0.272917 10.6612C0.881203 15.4061 5.22081 18.7595 9.96569 18.1512C11.4592 17.9598 12.8149 17.3986 13.9525 16.5715C13.953 16.5721 13.9536 16.5726 13.9541 16.5732L18.5892 21.7562C18.9719 22.1841 19.629 22.2208 20.0569 21.8381C20.4848 21.4554 20.5214 20.7983 20.1388 20.3704L15.5036 15.1875C15.4942 15.177 15.4847 15.1667 15.475 15.1567ZM9.795 16.8198C5.78546 17.3338 2.11839 14.5001 1.60437 10.4906C1.09035 6.48101 3.92404 2.81394 7.93359 2.29993C11.9431 1.78591 15.6102 4.6196 16.1242 8.62914C16.6382 12.6387 13.8045 16.3058 9.795 16.8198Z" fill="#D7B972"/>
</svg>
