<svg width="20" height="20" viewBox="0 0 20 20" fill="none" xmlns="http://www.w3.org/2000/svg">
<path fill-rule="evenodd" clip-rule="evenodd" d="M9.99992 0C9.29701 0 8.72719 0.56982 8.72719 1.27273V8.72727H1.27273C0.56982 8.72727 0 9.29709 0 10C0 10.7029 0.56982 11.2727 1.27273 11.2727H8.72719V18.7273C8.72719 19.4302 9.29701 20 9.99992 20C10.7028 20 11.2726 19.4302 11.2726 18.7273V11.2727H18.7273C19.4302 11.2727 20 10.7029 20 10C20 9.29709 19.4302 8.72727 18.7273 8.72727H11.2726V1.27273C11.2726 0.56982 10.7028 0 9.99992 0Z" fill="#F5F5F5"/>
</svg>
