<svg width="21" height="23" viewBox="0 0 21 23" fill="none" xmlns="http://www.w3.org/2000/svg">
<path fill-rule="evenodd" clip-rule="evenodd" d="M13.766 12.2754C15.6243 11.2362 16.8806 9.24915 16.8806 6.96869C16.8806 3.61302 14.1603 0.8927 10.8046 0.8927C7.44895 0.8927 4.72864 3.61302 4.72864 6.96869C4.72864 9.21966 5.95267 11.1847 7.77144 12.2346C6.14241 12.7182 4.643 13.6019 3.41968 14.8253C1.48838 16.7566 0.403381 19.376 0.403381 22.1072H1.94812C1.94812 19.7857 2.87037 17.5592 4.51198 15.9175C6.15359 14.2759 8.38009 13.3537 10.7017 13.3537C13.0233 13.3537 15.2498 14.2759 16.8914 15.9175C18.533 17.5592 19.4552 19.7857 19.4552 22.1072H21C21 19.376 19.915 16.7566 17.9837 14.8252C16.794 13.6356 15.3432 12.767 13.766 12.2754ZM10.8046 11.6049C8.24412 11.6049 6.16841 9.52921 6.16841 6.96869C6.16841 4.40818 8.24412 2.33248 10.8046 2.33248C13.3651 2.33248 15.4408 4.40818 15.4408 6.96869C15.4408 9.52921 13.3651 11.6049 10.8046 11.6049Z" fill="#D7B972"/>
</svg>
