<svg width="40" height="35" viewBox="0 0 40 35" fill="none" xmlns="http://www.w3.org/2000/svg">
<path d="M11.4121 1.08793L11.5585 1.23438H11.5663L18.9199 8.58793C19.7012 9.36923 19.7012 10.6386 18.9199 11.4199C18.1386 12.2012 16.8692 12.2012 16.0879 11.4199L12.8536 8.18551L12 7.33195V8.53906L12 32.5C12 33.6067 11.1067 34.5 10 34.5C8.89333 34.5 8 33.6067 8 32.5L8 8.53906V7.33195L7.14645 8.18551L3.91207 11.4199C3.13077 12.2012 1.86142 12.2012 1.08012 11.4199C0.298816 10.6386 0.298816 9.36923 1.08012 8.58793L8.58012 1.08793C9.36142 0.306629 10.6308 0.306629 11.4121 1.08793ZM38.9121 23.5879C39.6578 24.3336 39.6918 25.5239 39.014 26.3101L38.9121 26.4121L31.4121 33.9121C30.6308 34.6934 29.3614 34.6934 28.5801 33.9121L21.0801 26.4121C20.2988 25.6308 20.2988 24.3614 21.0801 23.5801C21.8614 22.7988 23.1308 22.7988 23.9121 23.5801L27.1464 26.8145L28 27.668V26.4609L28 2.5C28 1.39333 28.8933 0.5 30 0.5C31.1067 0.5 32 1.39333 32 2.5V26.4609V27.668L32.8536 26.8145L36.0801 23.5879C36.8614 22.8066 38.1308 22.8066 38.9121 23.5879Z" stroke="#F5F6FA"/>
</svg>
