<svg width="118" height="166" viewBox="0 0 118 166" fill="none" xmlns="http://www.w3.org/2000/svg">
<g filter="url(#filter0_d_275_92)">
<rect x="0.583069" y="0.959473" width="110" height="158" rx="18" fill="url(#paint0_linear_275_92)"/>
<path d="M50.7773 93.8791V74.5791H53.4773C55.6773 74.5791 57.5773 74.1791 59.1773 73.3791C60.844 72.5124 62.1107 71.3458 62.9773 69.8791C63.9107 68.3458 64.3773 66.5791 64.3773 64.5791C64.3773 62.5791 63.944 60.8458 63.0773 59.3791C62.2107 57.9124 60.9773 56.7791 59.3773 55.9791C57.7773 55.1791 55.8773 54.7791 53.6773 54.7791C50.8107 54.7791 48.244 55.5791 45.9773 57.1791C43.7773 58.7124 42.0107 61.0124 40.6773 64.0791L32.6773 57.4791C34.6773 53.1458 37.544 49.8458 41.2773 47.5791C45.0773 45.2458 49.4107 44.0791 54.2773 44.0791C58.4773 44.0791 62.1773 44.9124 65.3773 46.5791C68.644 48.2458 71.1773 50.5791 72.9773 53.5791C74.7773 56.5124 75.6773 59.9124 75.6773 63.7791C75.6773 67.3791 74.8773 70.5791 73.2773 73.3791C71.744 76.1791 69.544 78.5124 66.6773 80.3791C63.8107 82.2458 60.4107 83.5458 56.4773 84.2791L61.2773 79.3791L60.2773 93.8791H50.7773ZM55.4773 118.079C53.344 118.079 51.5773 117.379 50.1773 115.979C48.844 114.512 48.1773 112.746 48.1773 110.679C48.1773 108.546 48.844 106.779 50.1773 105.379C51.5773 103.979 53.344 103.279 55.4773 103.279C57.6107 103.279 59.344 103.979 60.6773 105.379C62.0773 106.779 62.7773 108.546 62.7773 110.679C62.7773 112.746 62.0773 114.512 60.6773 115.979C59.344 117.379 57.6107 118.079 55.4773 118.079Z" fill="black"/>
<path d="M90.3773 13.0791L91.2754 15.843H94.1815L91.8304 17.5512L92.7285 20.3152L90.3773 18.607L88.0262 20.3152L88.9242 17.5512L86.5731 15.843H89.4793L90.3773 13.0791Z" fill="#D9D9D9"/>
<path d="M25 13L25.8981 15.7639H28.8042L26.4531 17.4721L27.3511 20.2361L25 18.5279L22.6489 20.2361L23.5469 17.4721L21.1958 15.7639H24.1019L25 13Z" fill="#D9D9D9"/>
<path d="M91 141L91.8981 143.764H94.8042L92.4531 145.472L93.3511 148.236L91 146.528L88.6489 148.236L89.5469 145.472L87.1958 143.764H90.1019L91 141Z" fill="#D9D9D9"/>
<path d="M35 131L35.8981 133.764H38.8042L36.4531 135.472L37.3511 138.236L35 136.528L32.6489 138.236L33.5469 135.472L31.1958 133.764H34.1019L35 131Z" fill="#D9D9D9"/>
<path d="M86 91L86.8981 93.7639H89.8042L87.4531 95.4721L88.3511 98.2361L86 96.5279L83.6489 98.2361L84.5469 95.4721L82.1958 93.7639H85.1019L86 91Z" fill="#D9D9D9"/>
</g>
<defs>
<filter id="filter0_d_275_92" x="0.0830688" y="0.459473" width="117" height="165" filterUnits="userSpaceOnUse" color-interpolation-filters="sRGB">
<feFlood flood-opacity="0" result="BackgroundImageFix"/>
<feColorMatrix in="SourceAlpha" type="matrix" values="0 0 0 0 0 0 0 0 0 0 0 0 0 0 0 0 0 0 127 0" result="hardAlpha"/>
<feOffset dx="3" dy="3"/>
<feGaussianBlur stdDeviation="1.75"/>
<feComposite in2="hardAlpha" operator="out"/>
<feColorMatrix type="matrix" values="0 0 0 0 0 0 0 0 0 0 0 0 0 0 0 0 0 0 0.74 0"/>
<feBlend mode="normal" in2="BackgroundImageFix" result="effect1_dropShadow_275_92"/>
<feBlend mode="normal" in="SourceGraphic" in2="effect1_dropShadow_275_92" result="shape"/>
</filter>
<linearGradient id="paint0_linear_275_92" x1="55.5831" y1="0.959473" x2="55.5831" y2="158.959" gradientUnits="userSpaceOnUse">
<stop stop-color="#9747FF"/>
<stop offset="1" stop-color="#410095"/>
</linearGradient>
</defs>
</svg>
